<svg width="25" height="20" viewBox="0 0 25 20" fill="none" xmlns="http://www.w3.org/2000/svg">
<path d="M0.1 17V3H5.56C6.78667 3 7.83333 3.19333 8.7 3.58C9.56667 3.96667 10.2333 4.52667 10.7 5.26C11.1667 5.99333 11.4 6.86667 11.4 7.88C11.4 8.89333 11.1667 9.76667 10.7 10.5C10.2333 11.22 9.56667 11.7733 8.7 12.16C7.83333 12.5467 6.78667 12.74 5.56 12.74H1.2L2.1 11.82V17H0.1ZM9.46 17L5.9 11.92H8.04L11.64 17H9.46ZM2.1 12.02L1.2 11.04H5.5C6.78 11.04 7.74667 10.7667 8.4 10.22C9.06667 9.66 9.4 8.88 9.4 7.88C9.4 6.88 9.06667 6.10667 8.4 5.56C7.74667 5.01333 6.78 4.74 5.5 4.74H1.2L2.1 3.74V12.02ZM18.2113 19.4V0.599999H19.4913V19.4H18.2113ZM18.7113 17.16C17.6446 17.16 16.6246 17 15.6513 16.68C14.6779 16.3467 13.9113 15.92 13.3513 15.4L14.0913 13.84C14.6246 14.3067 15.3046 14.6933 16.1313 15C16.9579 15.3067 17.8179 15.46 18.7113 15.46C19.5246 15.46 20.1846 15.3667 20.6913 15.18C21.1979 14.9933 21.5713 14.74 21.8113 14.42C22.0513 14.0867 22.1713 13.7133 22.1713 13.3C22.1713 12.82 22.0113 12.4333 21.6913 12.14C21.3846 11.8467 20.9779 11.6133 20.4713 11.44C19.9779 11.2533 19.4313 11.0933 18.8313 10.96C18.2313 10.8267 17.6246 10.6733 17.0113 10.5C16.4113 10.3133 15.8579 10.08 15.3513 9.8C14.8579 9.52 14.4579 9.14667 14.1513 8.68C13.8446 8.2 13.6913 7.58667 13.6913 6.84C13.6913 6.12 13.8779 5.46 14.2513 4.86C14.6379 4.24667 15.2246 3.76 16.0113 3.4C16.8113 3.02667 17.8246 2.84 19.0513 2.84C19.8646 2.84 20.6713 2.94667 21.4713 3.16C22.2713 3.37333 22.9646 3.68 23.5512 4.08L22.8913 5.68C22.2913 5.28 21.6579 4.99333 20.9913 4.82C20.3246 4.63333 19.6779 4.54 19.0513 4.54C18.2646 4.54 17.6179 4.64 17.1113 4.84C16.6046 5.04 16.2313 5.30667 15.9913 5.64C15.7646 5.97333 15.6513 6.34667 15.6513 6.76C15.6513 7.25333 15.8046 7.64667 16.1113 7.94C16.4313 8.23333 16.8379 8.46667 17.3313 8.64C17.8379 8.81333 18.3913 8.97333 18.9913 9.12C19.5913 9.25333 20.1913 9.40667 20.7913 9.58C21.4046 9.75333 21.9579 9.98 22.4513 10.26C22.9579 10.54 23.3646 10.9133 23.6713 11.38C23.9779 11.8467 24.1313 12.4467 24.1313 13.18C24.1313 13.8867 23.9379 14.5467 23.5512 15.16C23.1646 15.76 22.5646 16.2467 21.7513 16.62C20.9513 16.98 19.9379 17.16 18.7113 17.16Z" fill="black"/>
</svg>
