<svg width="147" height="63" viewBox="0 0 147 63" fill="none" xmlns="http://www.w3.org/2000/svg">
<path d="M1.14866 0.691653C0.391818 1.97247 2.42947 2.38 8.77531 2.32178L15.1794 2.20534L15.354 25.4346L15.4705 48.6639L11.5698 51.6912C7.4945 54.7768 0.915787 61.0645 0.915787 61.8213C0.915787 63.3932 2.54591 62.5199 5.6315 59.4926C24.4944 40.5715 55.2921 31.4311 87.6617 34.9825C108.096 37.253 127.541 45.7529 140.757 58.3282C143.377 60.8316 145.764 62.9275 145.997 62.9275C148.093 62.9857 142.853 56.6398 137.439 52.5645C136.507 51.8659 134.993 50.7597 134.12 50.0611L132.49 48.8967V25.6093V2.38H139.127C144.017 2.38 145.88 2.14712 146.404 1.56493C146.928 0.924528 146.87 0.691653 146.113 0.40056C144.308 -0.298065 1.61441 -0.00697121 1.14866 0.691653ZM72.9906 17.1093L72.8159 31.7804L69.3228 32.1298C67.4016 32.3626 63.5591 32.7119 60.7646 32.8866L55.6414 33.2941V17.9244C55.6414 9.48268 55.7578 2.43821 55.8743 2.32178C55.9907 2.20534 59.9496 2.14712 64.6071 2.26356L73.107 2.43821L72.9906 17.1093ZM110.949 20.2531C110.949 36.9037 110.891 38.0098 109.959 37.777C106.816 36.9037 97.0349 34.4003 95.6959 34.1092L94.0657 33.8181V18.1573C94.0657 9.59912 94.1822 2.43821 94.2986 2.32178C94.415 2.20534 98.2575 2.14712 102.74 2.26356L110.949 2.43821V20.2531ZM34.6826 20.5442V38.7667L26.4156 42.842C21.8745 45.0543 17.9739 46.9755 17.6828 47.092C17.4499 47.2084 17.217 37.1948 17.217 24.8524V2.38H25.9498H34.6826V20.5442ZM53.8948 18.099V33.8181L52.3229 34.1092C51.3914 34.2839 47.6654 35.2154 43.9976 36.1469C40.3299 37.1366 37.1278 37.8934 36.895 37.8934C36.6039 37.8934 36.4292 29.9174 36.4292 20.1367V2.38H45.162H53.8948V18.099ZM91.737 17.8662V33.3524L88.7096 33.003C87.0213 32.8284 83.1788 32.5373 80.2679 32.3044L74.8536 31.8969V17.1675V2.38H83.2953H91.737V17.8662ZM130.161 24.8524C130.161 37.1948 129.987 47.2084 129.754 47.092C129.463 46.9755 125.678 45.0543 121.312 42.9002L113.278 38.8831V20.6025V2.38H121.72H130.161V24.8524Z" fill="#15406B"/>
</svg>
