<svg width="151" height="92" viewBox="0 0 151 92" fill="none" xmlns="http://www.w3.org/2000/svg">
<path d="M4.14866 0.691654C3.39182 1.97247 5.42947 2.38 11.7753 2.32178L18.1794 2.20534L18.354 25.4346L18.4705 48.6639L14.5698 51.6912C10.4945 54.7768 3.91579 61.0645 3.91579 61.8213C3.91579 63.3932 5.54591 62.5199 8.6315 59.4926C27.4944 40.5715 58.2921 31.4311 90.6617 34.9825C111.096 37.253 130.541 45.7529 143.757 58.3282C146.377 60.8316 148.764 62.9275 148.997 62.9275C151.093 62.9857 145.853 56.6398 140.439 52.5645C139.507 51.8659 137.993 50.7597 137.12 50.0611L135.49 48.8967V25.6093V2.38H142.127C147.017 2.38 148.88 2.14712 149.404 1.56493C149.928 0.92453 149.87 0.691654 149.113 0.400558C147.308 -0.298065 4.61441 -0.00696945 4.14866 0.691654ZM75.9906 17.1093L75.8159 31.7804L72.3228 32.1298C70.4016 32.3626 66.5591 32.7119 63.7646 32.8866L58.6414 33.2941V17.9244C58.6414 9.48268 58.7578 2.43821 58.8743 2.32178C58.9907 2.20534 62.9496 2.14712 67.6071 2.26356L76.107 2.43821L75.9906 17.1093ZM113.949 20.2531C113.949 36.9037 113.891 38.0098 112.959 37.777C109.816 36.9037 100.035 34.4003 98.6959 34.1092L97.0657 33.8181V18.1573C97.0657 9.59912 97.1822 2.43821 97.2986 2.32178C97.415 2.20534 101.257 2.14712 105.74 2.26356L113.949 2.43821V20.2531ZM37.6826 20.5442V38.7667L29.4156 42.842C24.8745 45.0543 20.9739 46.9755 20.6828 47.092C20.4499 47.2084 20.217 37.1948 20.217 24.8524V2.38H28.9498H37.6826V20.5442ZM56.8948 18.099V33.8181L55.3229 34.1092C54.3914 34.2839 50.6654 35.2154 46.9976 36.1469C43.3299 37.1366 40.1278 37.8934 39.895 37.8934C39.6039 37.8934 39.4292 29.9174 39.4292 20.1367V2.38H48.162H56.8948V18.099ZM94.737 17.8662V33.3524L91.7096 33.003C90.0213 32.8284 86.1788 32.5373 83.2679 32.3044L77.8536 31.8969V17.1675V2.38H86.2953H94.737V17.8662ZM133.161 24.8524C133.161 37.1948 132.987 47.2084 132.754 47.092C132.463 46.9755 128.678 45.0543 124.312 42.9002L116.278 38.8831V20.6025V2.38H124.72H133.161V24.8524Z" fill="#15406B"/>
<path d="M71.5076 50.2358C71.2165 50.9926 70.1104 53.5542 69.1207 55.9412C68.131 58.3282 66.7919 61.5302 66.1515 63.0439L65.0454 65.8384H66.7919C68.2474 65.8384 68.6549 65.4891 69.3535 63.8007L70.2268 61.7631H74.3021C78.261 61.7631 78.3192 61.8213 78.9596 63.5096C79.4254 64.9069 79.8911 65.2562 81.2884 65.2562C82.2781 65.2562 83.0932 65.1398 83.0932 65.0233C83.0932 64.9069 81.4048 61.2391 79.3672 56.8727C75.6994 49.246 75.5247 48.955 73.7782 48.955C72.4974 48.955 71.857 49.3043 71.5076 50.2358ZM76.6891 58.9104C76.6891 59.2014 75.4665 59.4343 74.011 59.4343C70.9837 59.4343 70.9837 59.2597 72.9049 54.5439L73.8364 52.2734L75.2919 55.359C76.0487 56.9891 76.6891 58.6193 76.6891 58.9104Z" fill="#15406B"/>
<path d="M96.8911 52.0988C94.0384 53.1467 92.9904 54.0782 92.0007 56.3487C90.8945 59.0268 91.0692 62.3453 92.4082 64.5576C94.4459 67.876 100.442 69.739 103.644 68.1089C105.391 67.1774 105.391 67.2356 104.576 65.9548C103.994 65.0233 103.586 64.9069 102.538 65.3726C100.559 66.3041 97.2986 65.4308 95.9014 63.6843C94.0384 61.2973 94.5623 57.3967 97.0075 55.5337C98.5212 54.3693 102.364 54.6022 103.819 55.9994C104.692 56.8145 105.507 57.1056 106.323 56.8145C107.836 56.3487 107.894 55.2426 106.555 54.0782C103.877 51.8077 100.035 50.9926 96.8911 52.0988Z" fill="#15406B"/>
<path d="M47.8708 52.7392C47.5797 52.8556 45.8331 53.3796 44.0284 53.9035L40.7681 54.835L42.8058 62.2288C43.9119 66.3041 44.9599 69.8555 45.251 70.0883C45.4838 70.3212 46.3571 70.3794 47.1722 70.2048C48.5112 69.8555 48.5694 69.6808 48.0455 68.1089C47.2304 65.7219 47.7544 64.9069 50.2578 64.3829C52.994 63.9172 56.3125 60.7151 56.3125 58.6193C56.3125 56.3487 55.0899 54.1946 53.3434 53.2631C51.8297 52.5063 49.2098 52.2734 47.8708 52.7392ZM51.7715 56.3487C54.1002 58.4446 52.4701 61.2973 48.3365 62.1124C46.59 62.4617 46.4735 62.3453 45.8331 60.0165C45.0181 57.0474 45.3092 56.1159 47.114 55.7665C49.792 55.2426 50.7235 55.359 51.7715 56.3487Z" fill="#15406B"/>
<path d="M117.442 58.2117C116.627 59.8419 116.627 59.8419 118.898 60.5987C120.004 60.948 121.052 61.472 121.226 61.7631C121.401 62.0542 120.237 64.9651 118.607 68.2254C116.976 71.4274 115.696 74.1637 115.812 74.2801C115.928 74.3383 116.569 74.7458 117.268 75.0952C118.548 75.7356 118.723 75.5027 121.576 69.7973C123.206 66.4788 124.661 63.7425 124.72 63.6261C124.836 63.5096 125.942 63.9754 127.281 64.6158C129.61 65.8384 129.61 65.8384 130.25 64.674C130.832 63.6261 130.309 63.2768 124.487 60.3076C118.432 57.2802 118.024 57.1638 117.442 58.2117Z" fill="#15406B"/>
<path d="M26.5048 60.6569C25.6315 61.1227 25.4568 62.1706 25.4568 67.2939C25.4568 70.6706 25.2822 73.4068 25.0493 73.4068C24.8747 73.4068 22.4877 72.2425 19.8096 70.787C14.6282 67.9925 13.7549 67.7596 12.7652 68.924C12.2412 69.5062 13.1145 71.3692 16.2001 76.4924C18.4706 80.2184 20.45 83.304 20.7411 83.304C20.974 83.304 21.6144 82.9547 22.1384 82.5472C23.0699 81.9068 22.9534 81.4992 20.7993 78.0643C19.5767 75.9685 18.5288 74.1055 18.4706 73.8144C18.4706 73.5815 20.3336 74.3383 22.6041 75.5027C24.8747 76.6089 27.087 77.4239 27.5527 77.2493C28.0767 77.0164 28.3678 75.5027 28.4842 72.126L28.6589 67.2939L31.1623 71.5438C33.6075 75.6774 33.6657 75.7356 35.0629 74.8041L36.402 73.9308L32.2684 66.9446C29.9397 63.1603 27.9602 60.0165 27.7856 60.0165C27.6109 60.0165 27.0287 60.3076 26.5048 60.6569Z" fill="#15406B"/>
<path d="M136.771 73.3486C132.637 75.9685 131.356 81.3246 133.918 85.1088C135.898 88.0197 138.692 89.7081 141.719 89.7081C152.956 89.7081 152.723 73.4068 141.487 72.4171C139.391 72.2425 138.226 72.4753 136.771 73.3486ZM144.689 76.7253C147.658 78.5883 147.658 82.8383 144.689 85.3417C142.476 87.2047 140.147 87.2047 137.935 85.3417C135.723 83.4787 135.257 81.5574 136.305 78.9376C137.761 75.5027 141.312 74.5712 144.689 76.7253Z" fill="#15406B"/>
<path d="M0.771973 79.1122C-0.275964 80.2766 -0.275964 80.3931 0.88841 81.965C1.52882 82.8382 4.03222 85.5163 6.41919 87.8451C10.4363 91.8039 10.8438 92.095 12.0082 91.3964C12.6486 90.9306 13.2308 90.4649 13.2308 90.2902C13.2308 90.1156 10.6692 87.2629 7.52534 83.9444C1.87813 77.9479 1.87813 77.9479 0.771973 79.1122Z" fill="#15406B"/>
</svg>
